<svg width="657" height="125" viewBox="0 0 657 125" fill="none" xmlns="http://www.w3.org/2000/svg">
<g filter="url(#filter0_d_1_2)">
<mask id="path-1-outside-1_1_2" maskUnits="userSpaceOnUse" x="4" y="0" width="649" height="117" fill="black">
<rect fill="white" x="4" width="649" height="117"/>
<path d="M75.162 101.558L60.72 116H19.718L5.442 101.558V15.736L19.718 1.29399H60.72L75.162 15.736V27.688L58.728 44.288V15.736H21.876V101.558H58.728V89.44L75.162 73.006V101.558ZM169.544 101.558L155.102 116H112.108L97.8322 101.558V15.736L112.108 1.29399H155.102L169.544 15.736V101.558ZM153.11 101.558V15.736H114.266V101.558H153.11ZM280.004 115.834H248.298L220.41 15.902H206.3L216.592 25.696V115.834H200.158V1.12799H232.03L259.586 101.392H273.862L263.57 90.934V1.12799H280.004V115.834ZM392.82 115.834H361.114L333.226 15.902H319.116L329.408 25.696V115.834H312.974V1.12799H344.846L372.402 101.392H386.678L376.386 90.934V1.12799H392.82V115.834ZM483.06 116H425.79V29.846L440.232 15.736H423.798V1.29399H483.06V15.736H442.224V56.572L454.342 44.288H483.06V58.564H442.224V101.558H483.06V116ZM575.533 101.558L561.091 116H520.089L505.813 101.558V15.736L520.089 1.29399H561.091L575.533 15.736V27.688L559.099 44.288V15.736H522.247V101.558H559.099V89.44L575.533 73.006V101.558ZM651.489 15.736H625.759V116H609.325V15.736H583.761V1.29399H651.489V15.736Z"/>
</mask>
<path d="M75.162 101.558L60.72 116H19.718L5.442 101.558V15.736L19.718 1.29399H60.72L75.162 15.736V27.688L58.728 44.288V15.736H21.876V101.558H58.728V89.44L75.162 73.006V101.558ZM169.544 101.558L155.102 116H112.108L97.8322 101.558V15.736L112.108 1.29399H155.102L169.544 15.736V101.558ZM153.11 101.558V15.736H114.266V101.558H153.11ZM280.004 115.834H248.298L220.41 15.902H206.3L216.592 25.696V115.834H200.158V1.12799H232.03L259.586 101.392H273.862L263.57 90.934V1.12799H280.004V115.834ZM392.82 115.834H361.114L333.226 15.902H319.116L329.408 25.696V115.834H312.974V1.12799H344.846L372.402 101.392H386.678L376.386 90.934V1.12799H392.82V115.834ZM483.06 116H425.79V29.846L440.232 15.736H423.798V1.29399H483.06V15.736H442.224V56.572L454.342 44.288H483.06V58.564H442.224V101.558H483.06V116ZM575.533 101.558L561.091 116H520.089L505.813 101.558V15.736L520.089 1.29399H561.091L575.533 15.736V27.688L559.099 44.288V15.736H522.247V101.558H559.099V89.44L575.533 73.006V101.558ZM651.489 15.736H625.759V116H609.325V15.736H583.761V1.29399H651.489V15.736Z" fill="black"/>
<path d="M75.162 101.558L75.8691 102.265L76.162 101.972V101.558H75.162ZM60.72 116V117H61.1342L61.4271 116.707L60.72 116ZM19.718 116L19.0068 116.703L19.3004 117H19.718V116ZM5.442 101.558H4.442V101.969L4.73082 102.261L5.442 101.558ZM5.442 15.736L4.73082 15.033L4.442 15.3252V15.736H5.442ZM19.718 1.29399V0.293991H19.3004L19.0068 0.590984L19.718 1.29399ZM60.72 1.29399L61.4271 0.586887L61.1342 0.293991H60.72V1.29399ZM75.162 15.736H76.162V15.3218L75.8691 15.0289L75.162 15.736ZM75.162 27.688L75.8727 28.3915L76.162 28.0993V27.688H75.162ZM58.728 44.288H57.728V46.7195L59.4387 44.9915L58.728 44.288ZM58.728 15.736H59.728V14.736H58.728V15.736ZM21.876 15.736V14.736H20.876V15.736H21.876ZM21.876 101.558H20.876V102.558H21.876V101.558ZM58.728 101.558V102.558H59.728V101.558H58.728ZM58.728 89.44L58.0209 88.7329L57.728 89.0258V89.44H58.728ZM75.162 73.006H76.162V70.5918L74.4549 72.2989L75.162 73.006ZM75.162 101.558L74.4549 100.851L60.0129 115.293L60.72 116L61.4271 116.707L75.8691 102.265L75.162 101.558ZM60.72 116V115H19.718V116V117H60.72V116ZM19.718 116L20.4292 115.297L6.15318 100.855L5.442 101.558L4.73082 102.261L19.0068 116.703L19.718 116ZM5.442 101.558H6.442V15.736H5.442H4.442V101.558H5.442ZM5.442 15.736L6.15318 16.439L20.4292 1.997L19.718 1.29399L19.0068 0.590984L4.73082 15.033L5.442 15.736ZM19.718 1.29399V2.29399H60.72V1.29399V0.293991H19.718V1.29399ZM60.72 1.29399L60.0129 2.0011L74.4549 16.4431L75.162 15.736L75.8691 15.0289L61.4271 0.586887L60.72 1.29399ZM75.162 15.736H74.162V27.688H75.162H76.162V15.736H75.162ZM75.162 27.688L74.4514 26.9845L58.0173 43.5844L58.728 44.288L59.4387 44.9915L75.8727 28.3915L75.162 27.688ZM58.728 44.288H59.728V15.736H58.728H57.728V44.288H58.728ZM58.728 15.736V14.736H21.876V15.736V16.736H58.728V15.736ZM21.876 15.736H20.876V101.558H21.876H22.876V15.736H21.876ZM21.876 101.558V102.558H58.728V101.558V100.558H21.876V101.558ZM58.728 101.558H59.728V89.44H58.728H57.728V101.558H58.728ZM58.728 89.44L59.4351 90.1471L75.8691 73.7131L75.162 73.006L74.4549 72.2989L58.0209 88.7329L58.728 89.44ZM75.162 73.006H74.162V101.558H75.162H76.162V73.006H75.162ZM169.544 101.558L170.251 102.265L170.544 101.972V101.558H169.544ZM155.102 116V117H155.516L155.809 116.707L155.102 116ZM112.108 116L111.397 116.703L111.691 117H112.108V116ZM97.8322 101.558H96.8322V101.969L97.1211 102.261L97.8322 101.558ZM97.8322 15.736L97.1211 15.033L96.8322 15.3252V15.736H97.8322ZM112.108 1.29399V0.293991H111.691L111.397 0.590984L112.108 1.29399ZM155.102 1.29399L155.809 0.586887L155.516 0.293991H155.102V1.29399ZM169.544 15.736H170.544V15.3218L170.251 15.0289L169.544 15.736ZM153.11 101.558V102.558H154.11V101.558H153.11ZM153.11 15.736H154.11V14.736H153.11V15.736ZM114.266 15.736V14.736H113.266V15.736H114.266ZM114.266 101.558H113.266V102.558H114.266V101.558ZM169.544 101.558L168.837 100.851L154.395 115.293L155.102 116L155.809 116.707L170.251 102.265L169.544 101.558ZM155.102 116V115H112.108V116V117H155.102V116ZM112.108 116L112.819 115.297L98.5434 100.855L97.8322 101.558L97.1211 102.261L111.397 116.703L112.108 116ZM97.8322 101.558H98.8322V15.736H97.8322H96.8322V101.558H97.8322ZM97.8322 15.736L98.5434 16.439L112.819 1.997L112.108 1.29399L111.397 0.590984L97.1211 15.033L97.8322 15.736ZM112.108 1.29399V2.29399H155.102V1.29399V0.293991H112.108V1.29399ZM155.102 1.29399L154.395 2.0011L168.837 16.4431L169.544 15.736L170.251 15.0289L155.809 0.586887L155.102 1.29399ZM169.544 15.736H168.544V101.558H169.544H170.544V15.736H169.544ZM153.11 101.558H154.11V15.736H153.11H152.11V101.558H153.11ZM153.11 15.736V14.736H114.266V15.736V16.736H153.11V15.736ZM114.266 15.736H113.266V101.558H114.266H115.266V15.736H114.266ZM114.266 101.558V102.558H153.11V101.558V100.558H114.266V101.558ZM280.004 115.834V116.834H281.004V115.834H280.004ZM248.298 115.834L247.335 116.103L247.539 116.834H248.298V115.834ZM220.41 15.902L221.373 15.6332L221.169 14.902H220.41V15.902ZM206.3 15.902V14.902H203.798L205.61 16.6264L206.3 15.902ZM216.592 25.696H217.592V25.2672L217.281 24.9716L216.592 25.696ZM216.592 115.834V116.834H217.592V115.834H216.592ZM200.158 115.834H199.158V116.834H200.158V115.834ZM200.158 1.12799V0.127995H199.158V1.12799H200.158ZM232.03 1.12799L232.994 0.862988L232.792 0.127995H232.03V1.12799ZM259.586 101.392L258.622 101.657L258.824 102.392H259.586V101.392ZM273.862 101.392V102.392H276.249L274.575 100.691L273.862 101.392ZM263.57 90.934H262.57V91.3435L262.857 91.6354L263.57 90.934ZM263.57 1.12799V0.127995H262.57V1.12799H263.57ZM280.004 1.12799H281.004V0.127995H280.004V1.12799ZM280.004 115.834V114.834H248.298V115.834V116.834H280.004V115.834ZM248.298 115.834L249.261 115.565L221.373 15.6332L220.41 15.902L219.447 16.1708L247.335 116.103L248.298 115.834ZM220.41 15.902V14.902H206.3V15.902V16.902H220.41V15.902ZM206.3 15.902L205.61 16.6264L215.902 26.4204L216.592 25.696L217.281 24.9716L206.989 15.1776L206.3 15.902ZM216.592 25.696H215.592V115.834H216.592H217.592V25.696H216.592ZM216.592 115.834V114.834H200.158V115.834V116.834H216.592V115.834ZM200.158 115.834H201.158V1.12799H200.158H199.158V115.834H200.158ZM200.158 1.12799V2.12799H232.03V1.12799V0.127995H200.158V1.12799ZM232.03 1.12799L231.066 1.393L258.622 101.657L259.586 101.392L260.55 101.127L232.994 0.862988L232.03 1.12799ZM259.586 101.392V102.392H273.862V101.392V100.392H259.586V101.392ZM273.862 101.392L274.575 100.691L264.283 90.2326L263.57 90.934L262.857 91.6354L273.149 102.093L273.862 101.392ZM263.57 90.934H264.57V1.12799H263.57H262.57V90.934H263.57ZM263.57 1.12799V2.12799H280.004V1.12799V0.127995H263.57V1.12799ZM280.004 1.12799H279.004V115.834H280.004H281.004V1.12799H280.004ZM392.82 115.834V116.834H393.82V115.834H392.82ZM361.114 115.834L360.151 116.103L360.355 116.834H361.114V115.834ZM333.226 15.902L334.189 15.6332L333.985 14.902H333.226V15.902ZM319.116 15.902V14.902H316.614L318.426 16.6264L319.116 15.902ZM329.408 25.696H330.408V25.2672L330.097 24.9716L329.408 25.696ZM329.408 115.834V116.834H330.408V115.834H329.408ZM312.974 115.834H311.974V116.834H312.974V115.834ZM312.974 1.12799V0.127995H311.974V1.12799H312.974ZM344.846 1.12799L345.81 0.862988L345.608 0.127995H344.846V1.12799ZM372.402 101.392L371.438 101.657L371.64 102.392H372.402V101.392ZM386.678 101.392V102.392H389.065L387.391 100.691L386.678 101.392ZM376.386 90.934H375.386V91.3435L375.673 91.6354L376.386 90.934ZM376.386 1.12799V0.127995H375.386V1.12799H376.386ZM392.82 1.12799H393.82V0.127995H392.82V1.12799ZM392.82 115.834V114.834H361.114V115.834V116.834H392.82V115.834ZM361.114 115.834L362.077 115.565L334.189 15.6332L333.226 15.902L332.263 16.1708L360.151 116.103L361.114 115.834ZM333.226 15.902V14.902H319.116V15.902V16.902H333.226V15.902ZM319.116 15.902L318.426 16.6264L328.719 26.4204L329.408 25.696L330.097 24.9716L319.805 15.1776L319.116 15.902ZM329.408 25.696H328.408V115.834H329.408H330.408V25.696H329.408ZM329.408 115.834V114.834H312.974V115.834V116.834H329.408V115.834ZM312.974 115.834H313.974V1.12799H312.974H311.974V115.834H312.974ZM312.974 1.12799V2.12799H344.846V1.12799V0.127995H312.974V1.12799ZM344.846 1.12799L343.882 1.393L371.438 101.657L372.402 101.392L373.366 101.127L345.81 0.862988L344.846 1.12799ZM372.402 101.392V102.392H386.678V101.392V100.392H372.402V101.392ZM386.678 101.392L387.391 100.691L377.099 90.2326L376.386 90.934L375.673 91.6354L385.965 102.093L386.678 101.392ZM376.386 90.934H377.386V1.12799H376.386H375.386V90.934H376.386ZM376.386 1.12799V2.12799H392.82V1.12799V0.127995H376.386V1.12799ZM392.82 1.12799H391.82V115.834H392.82H393.82V1.12799H392.82ZM483.06 116V117H484.06V116H483.06ZM425.79 116H424.79V117H425.79V116ZM425.79 29.846L425.091 29.1307L424.79 29.4249V29.846H425.79ZM440.232 15.736L440.931 16.4513L442.686 14.736H440.232V15.736ZM423.798 15.736H422.798V16.736H423.798V15.736ZM423.798 1.29399V0.293991H422.798V1.29399H423.798ZM483.06 1.29399H484.06V0.293991H483.06V1.29399ZM483.06 15.736V16.736H484.06V15.736H483.06ZM442.224 15.736V14.736H441.224V15.736H442.224ZM442.224 56.572H441.224V59.0096L442.936 57.2743L442.224 56.572ZM454.342 44.288V43.288H453.924L453.63 43.5857L454.342 44.288ZM483.06 44.288H484.06V43.288H483.06V44.288ZM483.06 58.564V59.564H484.06V58.564H483.06ZM442.224 58.564V57.564H441.224V58.564H442.224ZM442.224 101.558H441.224V102.558H442.224V101.558ZM483.06 101.558H484.06V100.558H483.06V101.558ZM483.06 116V115H425.79V116V117H483.06V116ZM425.79 116H426.79V29.846H425.79H424.79V116H425.79ZM425.79 29.846L426.489 30.5613L440.931 16.4513L440.232 15.736L439.533 15.0207L425.091 29.1307L425.79 29.846ZM440.232 15.736V14.736H423.798V15.736V16.736H440.232V15.736ZM423.798 15.736H424.798V1.29399H423.798H422.798V15.736H423.798ZM423.798 1.29399V2.29399H483.06V1.29399V0.293991H423.798V1.29399ZM483.06 1.29399H482.06V15.736H483.06H484.06V1.29399H483.06ZM483.06 15.736V14.736H442.224V15.736V16.736H483.06V15.736ZM442.224 15.736H441.224V56.572H442.224H443.224V15.736H442.224ZM442.224 56.572L442.936 57.2743L455.054 44.9903L454.342 44.288L453.63 43.5857L441.512 55.8697L442.224 56.572ZM454.342 44.288V45.288H483.06V44.288V43.288H454.342V44.288ZM483.06 44.288H482.06V58.564H483.06H484.06V44.288H483.06ZM483.06 58.564V57.564H442.224V58.564V59.564H483.06V58.564ZM442.224 58.564H441.224V101.558H442.224H443.224V58.564H442.224ZM442.224 101.558V102.558H483.06V101.558V100.558H442.224V101.558ZM483.06 101.558H482.06V116H483.06H484.06V101.558H483.06ZM575.533 101.558L576.24 102.265L576.533 101.972V101.558H575.533ZM561.091 116V117H561.505L561.798 116.707L561.091 116ZM520.089 116L519.378 116.703L519.672 117H520.089V116ZM505.813 101.558H504.813V101.969L505.102 102.261L505.813 101.558ZM505.813 15.736L505.102 15.033L504.813 15.3252V15.736H505.813ZM520.089 1.29399V0.293991H519.672L519.378 0.590984L520.089 1.29399ZM561.091 1.29399L561.798 0.586887L561.505 0.293991H561.091V1.29399ZM575.533 15.736H576.533V15.3218L576.24 15.0289L575.533 15.736ZM575.533 27.688L576.244 28.3915L576.533 28.0993V27.688H575.533ZM559.099 44.288H558.099V46.7195L559.81 44.9915L559.099 44.288ZM559.099 15.736H560.099V14.736H559.099V15.736ZM522.247 15.736V14.736H521.247V15.736H522.247ZM522.247 101.558H521.247V102.558H522.247V101.558ZM559.099 101.558V102.558H560.099V101.558H559.099ZM559.099 89.44L558.392 88.7329L558.099 89.0258V89.44H559.099ZM575.533 73.006H576.533V70.5918L574.826 72.2989L575.533 73.006ZM575.533 101.558L574.826 100.851L560.384 115.293L561.091 116L561.798 116.707L576.24 102.265L575.533 101.558ZM561.091 116V115H520.089V116V117H561.091V116ZM520.089 116L520.8 115.297L506.524 100.855L505.813 101.558L505.102 102.261L519.378 116.703L520.089 116ZM505.813 101.558H506.813V15.736H505.813H504.813V101.558H505.813ZM505.813 15.736L506.524 16.439L520.8 1.997L520.089 1.29399L519.378 0.590984L505.102 15.033L505.813 15.736ZM520.089 1.29399V2.29399H561.091V1.29399V0.293991H520.089V1.29399ZM561.091 1.29399L560.384 2.0011L574.826 16.4431L575.533 15.736L576.24 15.0289L561.798 0.586887L561.091 1.29399ZM575.533 15.736H574.533V27.688H575.533H576.533V15.736H575.533ZM575.533 27.688L574.822 26.9845L558.388 43.5844L559.099 44.288L559.81 44.9915L576.244 28.3915L575.533 27.688ZM559.099 44.288H560.099V15.736H559.099H558.099V44.288H559.099ZM559.099 15.736V14.736H522.247V15.736V16.736H559.099V15.736ZM522.247 15.736H521.247V101.558H522.247H523.247V15.736H522.247ZM522.247 101.558V102.558H559.099V101.558V100.558H522.247V101.558ZM559.099 101.558H560.099V89.44H559.099H558.099V101.558H559.099ZM559.099 89.44L559.806 90.1471L576.24 73.7131L575.533 73.006L574.826 72.2989L558.392 88.7329L559.099 89.44ZM575.533 73.006H574.533V101.558H575.533H576.533V73.006H575.533ZM651.489 15.736V16.736H652.489V15.736H651.489ZM625.759 15.736V14.736H624.759V15.736H625.759ZM625.759 116V117H626.759V116H625.759ZM609.325 116H608.325V117H609.325V116ZM609.325 15.736H610.325V14.736H609.325V15.736ZM583.761 15.736H582.761V16.736H583.761V15.736ZM583.761 1.29399V0.293991H582.761V1.29399H583.761ZM651.489 1.29399H652.489V0.293991H651.489V1.29399ZM651.489 15.736V14.736H625.759V15.736V16.736H651.489V15.736ZM625.759 15.736H624.759V116H625.759H626.759V15.736H625.759ZM625.759 116V115H609.325V116V117H625.759V116ZM609.325 116H610.325V15.736H609.325H608.325V116H609.325ZM609.325 15.736V14.736H583.761V15.736V16.736H609.325V15.736ZM583.761 15.736H584.761V1.29399H583.761H582.761V15.736H583.761ZM583.761 1.29399V2.29399H651.489V1.29399V0.293991H583.761V1.29399ZM651.489 1.29399H650.489V15.736H651.489H652.489V1.29399H651.489Z" fill="black" mask="url(#path-1-outside-1_1_2)"/>
</g>
<defs>
<filter id="filter0_d_1_2" x="0.442001" y="0.127995" width="656.047" height="124.872" filterUnits="userSpaceOnUse" color-interpolation-filters="sRGB">
<feFlood flood-opacity="0" result="BackgroundImageFix"/>
<feColorMatrix in="SourceAlpha" type="matrix" values="0 0 0 0 0 0 0 0 0 0 0 0 0 0 0 0 0 0 127 0" result="hardAlpha"/>
<feOffset dy="4"/>
<feGaussianBlur stdDeviation="2"/>
<feComposite in2="hardAlpha" operator="out"/>
<feColorMatrix type="matrix" values="0 0 0 0 0 0 0 0 0 0 0 0 0 0 0 0 0 0 0.25 0"/>
<feBlend mode="normal" in2="BackgroundImageFix" result="effect1_dropShadow_1_2"/>
<feBlend mode="normal" in="SourceGraphic" in2="effect1_dropShadow_1_2" result="shape"/>
</filter>
</defs>
</svg>
