<svg xmlns="http://www.w3.org/2000/svg"  viewBox="0 0 24 24" width="24px" height="24px"><path d="M 2.9003906 2.0039062 L 4.8886719 19.886719 L 11.992188 22.042969 L 12.210938 21.978516 L 19.109375 19.888672 L 21.083984 2.0039062 L 2.9003906 2.0039062 z M 4.5761719 3.5039062 L 19.408203 3.5039062 L 17.728516 18.740234 L 11.994141 20.476562 L 6.2714844 18.738281 L 4.5761719 3.5039062 z M 7.3496094 5.9902344 L 7.3496094 7.4902344 L 8.0996094 7.4902344 L 15.060547 7.4902344 L 14.693359 10.763672 L 10.552734 10.763672 L 9.8027344 10.763672 L 9.8027344 12.263672 L 10.552734 12.263672 L 14.523438 12.263672 L 14.142578 15.65625 L 11.992188 16.302734 L 9.8535156 15.658203 L 9.6972656 14.294922 L 9.6132812 13.548828 L 8.1230469 13.720703 L 8.2070312 14.464844 L 8.4765625 16.808594 L 11.992188 17.869141 L 15.521484 16.808594 L 16.738281 5.9902344 L 8.0996094 5.9902344 L 7.3496094 5.9902344 z"/></svg>